<svg id="Capa_1" data-name="Capa 1" xmlns="http://www.w3.org/2000/svg" viewBox="0 0 300 300"><defs><style>.cls-1{fill:#01213d;}</style></defs><path class="cls-1" d="M270.47,165.49H53.25a5.06,5.06,0,0,0,2-4V54.17a25,25,0,0,1,49.92,0c0,.12,0,.22,0,.34l-3.59,1.31c-12,4.36-17.74,19.31-13.76,34.35l-3.56,1.29a5.1,5.1,0,1,0,3.49,9.59l70-25.48A5.1,5.1,0,1,0,154.23,66l-3,1.1A34.93,34.93,0,0,0,139,52.6c-6.58-4.31-13.81-5.37-20.35-3l-3.44,1.26A35.16,35.16,0,0,0,45,54.17V161.51a5.06,5.06,0,0,0,2,4H34.17a5.1,5.1,0,0,0,0,10.2H44c.52,21.75,5.61,40.52,14.82,54.44a58.17,58.17,0,0,0,15.74,16.18,5.08,5.08,0,0,0-2.43,2.12L63.93,262.5a5.09,5.09,0,1,0,8.81,5.12l8.18-14.06a5.05,5.05,0,0,0,.63-3.22,58.38,58.38,0,0,0,25.33,5.47h90.88a58.38,58.38,0,0,0,25.33-5.47,5.11,5.11,0,0,0,.62,3.22l8.19,14.06a5.1,5.1,0,1,0,8.81-5.13l-8.18-14.06a5.08,5.08,0,0,0-2.43-2.12,58.17,58.17,0,0,0,15.74-16.18c9.2-13.92,14.3-32.69,14.82-54.44h9.81a5.1,5.1,0,0,0,0-10.2ZM122.09,59.2c3.45-1.26,7.45-.57,11.28,1.93a24.91,24.91,0,0,1,8.2,9.47L97.45,86.65c-2.18-9.54.93-18.82,7.6-21.25Zm75.67,186.41H106.88c-37.54,0-51.75-35.44-52.7-69.92H250.46C249.51,210.17,235.29,245.61,197.76,245.61Z"/><path class="cls-1" d="M116.07,115.8a3,3,0,0,1-2.82-2l-4.13-11.42a3,3,0,0,1,5.64-2l4.13,11.42a3,3,0,0,1-1.8,3.84A3,3,0,0,1,116.07,115.8Z"/><path class="cls-1" d="M133.29,118.82a3,3,0,0,1-2.83-2l-6.6-18.22a3,3,0,0,1,5.64-2l6.61,18.22a3,3,0,0,1-1.8,3.84A2.85,2.85,0,0,1,133.29,118.82Z"/><path class="cls-1" d="M145.82,110.83a3,3,0,0,1-2.82-2l-5.5-15.31a3,3,0,0,1,5.64-2l5.51,15.31a3,3,0,0,1-1.81,3.83A3,3,0,0,1,145.82,110.83Z"/></svg>