<svg id="Capa_1" data-name="Capa 1" xmlns="http://www.w3.org/2000/svg" viewBox="0 0 300 300"><defs><style>.cls-1{fill:#fff;}</style></defs><path class="cls-1" d="M275.61,206.85,250.18,126a4.82,4.82,0,0,0-1.51-2.26,4.79,4.79,0,0,0,1.06-3V48.27c0-11.56-9.1-21-20.29-21H71.55c-11.19,0-20.3,9.41-20.3,21v72.46A4.83,4.83,0,0,0,52.5,124a5,5,0,0,0-1.26,2L25.38,206.83a4.86,4.86,0,0,0,.35,3.79,4.75,4.75,0,0,0-.24,1.42v53.12A4.87,4.87,0,0,0,30.37,270H64.31a4.88,4.88,0,0,0,4.88-4.88v-22H231.8v22a4.88,4.88,0,0,0,4.88,4.88h33.94a4.88,4.88,0,0,0,4.88-4.88V212a4.87,4.87,0,0,0-.24-1.43A4.87,4.87,0,0,0,275.61,206.85ZM71.55,37.05H229.44c5.81,0,10.54,5,10.54,11.22v72.46a5.42,5.42,0,0,0,.06.58c-3.41-.65-7.14-1.25-11.16-1.8a4.57,4.57,0,0,0,.26-1.49V103.66c0-12.48-9.82-22.64-21.89-22.64H168.66a21.72,21.72,0,0,0-18.17,10,21.72,21.72,0,0,0-18.17-10H93.74c-12.08,0-21.9,10.16-21.9,22.64V118a4.77,4.77,0,0,0,.48,2.07q-5.82.75-11.41,1.61a5.23,5.23,0,0,0,.09-1V48.27C61,42.09,65.73,37.05,71.55,37.05Zm73,78.32c-21.15.29-42.87,1.46-63.07,3.65a5.56,5.56,0,0,0,.1-1V103.66c0-7.1,5.45-12.89,12.15-12.89h38.58c6.7,0,12.14,5.79,12.14,12.89v10.76A5,5,0,0,0,144.56,115.37Zm74.87,3a617.35,617.35,0,0,0-63-3.06,5.15,5.15,0,0,0,.09-.88V103.66c0-7,5.56-12.89,12.14-12.89h38.59c6.69,0,12.14,5.79,12.14,12.89V118C219.39,118.14,219.42,118.25,219.43,118.36ZM59.62,131.77c59.21-9.61,145.59-8,182.1-.18l22.6,71.85H36.7ZM241.55,260.29v-22a4.88,4.88,0,0,0-4.87-4.88H64.31a4.88,4.88,0,0,0-4.87,4.88v22H35.24v-47.1H265.75v47.1Z"/></svg>